PathFileType	4	(X/Y/Z)	/Users/visionmauri/4_2_1_f_1_Sports2D/4_2_1_f_1_Sports2D_px_person00.trc
DataRate	CameraRate	NumFrames	NumMarkers	Units	OrigDataRate	OrigDataStartFrame	OrigNumFrames
30.0	30.0	9	22	m	30.0	95	382
Frame#	Time	Hip			RHip			RKnee			RAnkle			RBigToe			RSmallToe			RHeel			LHip			LKnee			LAnkle			LBigToe			LSmallToe			LHeel			Neck			Head			Nose			RShoulder			RElbow			RWrist			LShoulder			LElbow			LWrist			
		X1	Y1	Z1	X2	Y2	Z2	X3	Y3	Z3	X4	Y4	Z4	X5	Y5	Z5	X6	Y6	Z6	X7	Y7	Z7	X8	Y8	Z8	X9	Y9	Z9	X10	Y10	Z10	X11	Y11	Z11	X12	Y12	Z12	X13	Y13	Z13	X14	Y14	Z14	X15	Y15	Z15	X16	Y16	Z16	X17	Y17	Z17	X18	Y18	Z18	X19	Y19	Z19	X20	Y20	Z20	X21	Y21	Z21	X22	Y22	Z22
95	3.1749781277340325	498.652123002481	839.9735967390983	0.0	552.9494739748684	835.1851697627804	0.0	606.4805250585891	1000.2908848272122	0.0	618.0556864084114	1046.239338442292	0.0	646.5987710127246	1224.1954243385997	0.0	659.7635248216322	1232.4659949496718	0.0	613.5412717035697	1203.5623069863377	0.0	450.55730437116983	854.5599939100222	0.0	479.61746283035313	1069.9791412475506	0.0	492.42682691143716	1275.0921639380722	0.0	493.4224171061532	1305.173112367678	0.0	463.5251752010699	1312.9475189846046	0.0	495.15818601276146	1312.844014883419	0.0	491.6143360513271	563.9127543746253	0.0	532.171367766091	469.0323971287446	0.0	546.7962462839482	527.9501331921798	0.0	564.7014261005108	585.4263612322318	0.0	649.7804638404788	713.695597748786	0.0	724.9220253557363	819.8340123867788	0.0	400.1967132216921	601.943150700887	0.0	364.31174003580423	749.4266087421855	0.0	393.5295331810327	851.8184589716312	0.0
96	3.208398950131233	497.3533522656384	838.3484270937267	0.0	551.361814903774	834.5077176668967	0.0	603.5175319323421	993.5305133746061	0.0	610.782936327663	1025.853684775244	0.0	625.9033943147872	1094.8797550010463	0.0	646.5689769735608	1098.6677023078364	0.0	604.2868268956921	1087.8644758698813	0.0	450.50611759097785	854.0016669902354	0.0	479.52242108121237	1067.4169982354795	0.0	491.1644457810784	1273.8490081874986	0.0	495.26265307135395	1307.073045093695	0.0	466.55655742701697	1313.607510906309	0.0	494.9316281574281	1312.5665774855795	0.0	492.3685523229776	563.749927082019	0.0	534.7298994157328	468.7633016824627	0.0	547.3770151912119	527.5878145960925	0.0	564.7448438136807	585.3880855458041	0.0	650.1792720665982	713.8422882891451	0.0	725.3760696108726	819.7183039958887	0.0	400.9373725666201	602.0614906909616	0.0	365.1641439491885	751.0119447250504	0.0	394.56346648719165	850.9899542979985	0.0
97	3.2418197725284337	496.5508378879744	838.1282780369312	0.0	549.2515285967971	833.7380210209644	0.0	601.0961652420528	991.6627724634191	0.0	604.3921910048969	1011.3752205466467	0.0	609.3824765303928	1014.2725742601231	0.0	638.4610668904257	1014.3731149622995	0.0	596.4618165243147	1014.3030829620875	0.0	450.3099013284237	853.2312239249331	0.0	478.7822680143668	1065.3564106239728	0.0	490.17656983158594	1274.191196200516	0.0	496.86160224424344	1308.1368375232055	0.0	469.4411444811733	1313.862879241486	0.0	494.4279188576875	1312.4006670280528	0.0	494.1413915813321	562.9249569733951	0.0	536.804659823845	468.0871485032229	0.0	548.4254689581544	527.582845688341	0.0	565.0147012933294	585.8535660657008	0.0	650.7653522731677	714.4045759556928	0.0	726.0848222497921	819.8647736270871	0.0	402.0179045196312	602.4007885527518	0.0	365.60079374108903	751.0351421864984	0.0	394.682229459761	850.2293278602416	0.0
98	3.275240594925634	495.8609812418105	838.7041474958457	0.0	547.7644066301671	833.6264638044277	0.0	598.8486667868596	992.8251988015463	0.0	601.1716284537979	1007.2237400083166	0.0	602.265054796749	999.4781572984548	0.0	635.3661778490466	996.9877355714651	0.0	592.5808746703384	998.987351337575	0.0	450.363635739245	852.2552832461764	0.0	477.89496324427125	1064.9998593466346	0.0	490.0081041922586	1275.2428900867262	0.0	498.1237204950484	1308.0438047713064	0.0	470.4142140325625	1313.3917600310078	0.0	493.620242328273	1311.9858118206266	0.0	495.34994690756673	562.3346467371447	0.0	538.206998622174	467.8964613696426	0.0	549.8951765888975	527.928441656208	0.0	565.1068702114936	586.6137995188935	0.0	650.8864414160661	715.0633205843524	0.0	726.7080606374881	820.2550637387783	0.0	402.8302111766562	603.1752350370616	0.0	366.83497494840606	750.471710628765	0.0	394.58277275529883	849.9824105762123	0.0
99	3.308661417322834	494.94032042050503	838.7758819014205	0.0	547.0972840799008	833.4795805793037	0.0	596.3459132813076	993.5512718832379	0.0	599.8641955882516	1008.1674566835703	0.0	600.6457421410906	1010.5106340679279	0.0	632.468577204479	1006.8570503835564	0.0	590.6711233201794	1007.4569335111738	0.0	450.6464052217051	850.740251721147	0.0	477.36000906725826	1065.5607289562677	0.0	490.3020384219101	1275.4618245496815	0.0	499.0546616439621	1308.5994784903298	0.0	469.6366428577106	1313.979196317158	0.0	492.65650291303143	1311.4641353780692	0.0	495.3497339891989	563.1077534292659	0.0	539.5723477685818	468.9531098457753	0.0	551.3413166271625	528.5111721225298	0.0	565.1488020207585	587.6776429496402	0.0	650.4431022142234	715.2746043563103	0.0	727.005754409011	820.5792684158282	0.0	403.46811214226767	604.3980875732605	0.0	368.77233403252296	750.0714727724509	0.0	394.9579018243477	850.5793890774761	0.0
100	3.3420822397200345	493.8799931502077	838.546705562455	0.0	546.4127771441637	833.1848469703027	0.0	594.1001330520564	993.9443716891892	0.0	597.6511792229855	1009.3255718968963	0.0	600.0362046402811	1015.1166382051451	0.0	628.2230121794747	1014.1591908419733	0.0	587.4138894261112	1013.251628910729	0.0	450.4495476365827	849.5785555536847	0.0	477.2106618470666	1065.8564104760162	0.0	490.44719451002777	1274.8452577541289	0.0	500.68443208734516	1310.2487827268403	0.0	469.40541470749986	1316.1742138214074	0.0	491.8346870695405	1310.9263540472023	0.0	495.5358456385725	564.8380888225324	0.0	541.0412506783438	470.92481616029954	0.0	551.8801703470239	529.3014276434405	0.0	565.7119548603687	588.7428301005716	0.0	649.8456125996237	715.0663133221277	0.0	726.8198716115745	820.6728563043757	0.0	404.4455805983741	605.1191857043159	0.0	370.40063651067175	749.7713405480608	0.0	395.8451606049397	851.8999926899387	0.0
101	3.375503062117235	493.1733229612899	838.6269801819677	0.0	545.506372497975	833.2282334332843	0.0	592.5254261501349	994.1839308269053	0.0	593.9046228717291	1009.9471635009204	0.0	599.1343941135945	1011.33118247654	0.0	624.1462776106857	1016.0318269343261	0.0	582.2900677282082	1014.0884140991917	0.0	449.58962943019384	849.4665330030333	0.0	477.1535350570793	1065.6955937903483	0.0	490.431417526315	1274.3523085348688	0.0	503.04331925058233	1311.5483046030006	0.0	470.8288475424891	1318.042423521894	0.0	491.5228273046462	1310.3459269123034	0.0	496.8336035930381	566.0632186677268	0.0	542.4913149676526	472.7249022366039	0.0	551.6678275251927	530.6173349626739	0.0	566.7850837419443	588.959354308874	0.0	649.55102264349	714.9564889467606	0.0	726.6743668846236	820.9239488928971	0.0	405.72667065124006	604.6659734922656	0.0	371.1056138584764	749.6894515788682	0.0	396.5585815950303	852.8925555064574	0.0
102	3.408923884514435	493.0614637850842	838.8722988817133	0.0	545.154006190681	833.5316706760966	0.0	591.761223509282	993.7690524304129	0.0	590.9455109424729	1010.3433387000954	0.0	598.2880625052691	1007.6019361903161	0.0	621.6432274158155	1016.481799357241	0.0	578.0627859879556	1014.245201745746	0.0	448.6754625628293	849.6016696637008	0.0	477.0422034524554	1065.5399627709585	0.0	490.688229834922	1274.6244392908407	0.0	504.38260359812733	1312.012876579841	0.0	472.57810908728527	1318.7054766762956	0.0	491.73488168232774	1310.2065149403243	0.0	498.4451026193657	566.3511554386581	0.0	544.4434848189064	473.98366227981273	0.0	552.2142824598155	532.2534671106164	0.0	567.995222142992	588.6173947283849	0.0	650.0064022769393	715.1941158141609	0.0	727.3596285295224	821.6823293461721	0.0	406.9618214952401	603.677823832759	0.0	371.1590676970994	749.7190348812347	0.0	396.388182453177	852.7790401931351	0.0
103	3.4423447069116353	493.13380140522355	838.7901531433844	0.0	545.3614307197	833.8503242385005	0.0	592.0371001543681	993.5646033907993	0.0	590.5122102649359	1010.7768183240984	0.0	598.051749522204	1007.2673391236834	0.0	620.7488394693297	1016.8563149209325	0.0	576.5654819684419	1015.142793947347	0.0	448.12272788584306	849.2950814888259	0.0	477.02900307888916	1065.4392367173125	0.0	491.3207413361472	1275.5495404654625	0.0	504.1358295754767	1312.3778415286365	0.0	473.3732715262118	1319.0361389534587	0.0	491.95071634388705	1310.6076724048407	0.0	499.5838679762605	566.5090870739169	0.0	547.216966684446	475.1181533724386	0.0	553.9641761579632	533.3225563883542	0.0	569.2903396938029	588.7451523243957	0.0	651.1759352614077	715.404418204822	0.0	728.614252134122	822.4571083456392	0.0	408.2175593543056	603.0451236660208	0.0	371.1071665361519	749.231362351149	0.0	395.5520320675272	851.9110743500735	0.0
